<?xml version="1.0" encoding="utf-8"?>
<!-- Generator: Adobe Illustrator 26.1.0, SVG Export Plug-In . SVG Version: 6.00 Build 0)  -->
<svg version="1.1" id="Layer_1" xmlns="http://www.w3.org/2000/svg" xmlns:xlink="http://www.w3.org/1999/xlink" x="0px" y="0px"
	 viewBox="0 0 42 42" style="enable-background:new 0 0 42 42;" xml:space="preserve">
<style type="text/css">
	.st0{fill:none;stroke:#000000;stroke-width:1.75;stroke-linecap:round;stroke-miterlimit:10;}
</style>
<g>
	<path d="M21,22c2.6,0,4.7,2.1,4.7,4.7s-2.1,4.7-4.7,4.7s-4.7-2.1-4.7-4.7S18.4,22,21,22 M21,15c7.8,0,14.5,4.9,17.2,11.7
		c-2.7,6.9-9.4,11.7-17.2,11.7S6.5,33.6,3.8,26.7C6.5,19.9,13.2,15,21,15 M7.2,26.7c2.6,5.3,7.9,8.6,13.8,8.6s11.2-3.3,13.8-8.6
		c-2.6-5.3-7.9-8.6-13.8-8.6S9.8,21.5,7.2,26.7z"/>
	<line class="st0" x1="21" y1="11.8" x2="21" y2="3.6"/>
	<line class="st0" x1="12.3" y1="13.3" x2="9.7" y2="5.5"/>
	<line class="st0" x1="5.5" y1="18.4" x2="1.1" y2="11.5"/>
	<line class="st0" x1="29.7" y1="13.3" x2="32.3" y2="5.5"/>
	<line class="st0" x1="36.5" y1="18.4" x2="40.9" y2="11.5"/>
</g>
</svg>
